<svg width="224" height="61" viewBox="0 0 224 61" fill="none" xmlns="http://www.w3.org/2000/svg">
<path d="M82.8835 30.7754H90.8132V41.1387C89.765 41.485 88.6758 41.763 87.5456 41.9727C86.4154 42.1732 85.1348 42.2734 83.7038 42.2734C81.7168 42.2734 80.0307 41.8815 78.6452 41.0977C77.2598 40.3138 76.2071 39.1562 75.487 37.625C74.767 36.0937 74.407 34.2116 74.407 31.9785C74.407 29.8822 74.808 28.0684 75.6101 26.5371C76.4213 25.0059 77.6016 23.821 79.1511 22.9824C80.7097 22.1439 82.6101 21.7246 84.8523 21.7246C85.9096 21.7246 86.9532 21.8385 87.9831 22.0664C89.0131 22.2943 89.9473 22.5905 90.7859 22.9551L89.3777 26.3457C88.767 26.0358 88.0697 25.776 87.2859 25.5664C86.502 25.3568 85.6817 25.252 84.8249 25.252C83.5945 25.252 82.5235 25.5345 81.612 26.0996C80.7097 26.6647 80.0079 27.4577 79.5066 28.4785C79.0144 29.4902 78.7683 30.6842 78.7683 32.0605C78.7683 33.3639 78.946 34.5215 79.3015 35.5332C79.657 36.5358 80.2175 37.3242 80.9831 37.8984C81.7487 38.4635 82.7468 38.7461 83.9773 38.7461C84.5788 38.7461 85.0847 38.7187 85.4948 38.6641C85.9141 38.6003 86.306 38.5365 86.6706 38.4727V34.3027H82.8835V30.7754ZM108.867 34.3301C108.867 35.6061 108.694 36.7363 108.348 37.7207C108.01 38.7051 107.514 39.5391 106.857 40.2227C106.21 40.8971 105.426 41.4076 104.506 41.7539C103.594 42.1003 102.564 42.2734 101.416 42.2734C100.34 42.2734 99.3516 42.1003 98.4492 41.7539C97.556 41.4076 96.7767 40.8971 96.1113 40.2227C95.4551 39.5391 94.9447 38.7051 94.5801 37.7207C94.2246 36.7363 94.0469 35.6061 94.0469 34.3301C94.0469 32.6348 94.3477 31.1992 94.9492 30.0234C95.5508 28.8477 96.4076 27.9544 97.5195 27.3437C98.6315 26.7331 99.9577 26.4277 101.498 26.4277C102.929 26.4277 104.196 26.7331 105.299 27.3437C106.411 27.9544 107.281 28.8477 107.91 30.0234C108.548 31.1992 108.867 32.6348 108.867 34.3301ZM98.2988 34.3301C98.2988 35.3327 98.4082 36.1758 98.627 36.8594C98.8457 37.543 99.1875 38.0579 99.6523 38.4043C100.117 38.7507 100.723 38.9238 101.471 38.9238C102.209 38.9238 102.806 38.7507 103.262 38.4043C103.727 38.0579 104.064 37.543 104.273 36.8594C104.492 36.1758 104.602 35.3327 104.602 34.3301C104.602 33.3184 104.492 32.4798 104.273 31.8145C104.064 31.14 103.727 30.6341 103.262 30.2969C102.797 29.9596 102.191 29.791 101.443 29.791C100.34 29.791 99.5384 30.1693 99.0371 30.9258C98.5449 31.6823 98.2988 32.8171 98.2988 34.3301ZM115.669 42L109.845 26.7148H114.206L117.159 35.4238C117.324 35.9342 117.451 36.472 117.542 37.0371C117.643 37.6022 117.711 38.1081 117.747 38.5547H117.857C117.884 38.0716 117.948 37.5566 118.048 37.0098C118.158 36.4629 118.299 35.9342 118.472 35.4238L121.411 26.7148H125.773L119.949 42H115.669ZM133.956 26.4004C136.006 26.4004 137.579 26.847 138.672 27.7402C139.766 28.6335 140.313 29.9915 140.313 31.8145V42H137.401L136.594 39.9219H136.485C136.047 40.4687 135.601 40.9154 135.145 41.2617C134.689 41.6081 134.165 41.8633 133.573 42.0273C132.98 42.1914 132.26 42.2734 131.413 42.2734C130.51 42.2734 129.699 42.1003 128.979 41.7539C128.268 41.4076 127.708 40.8789 127.297 40.168C126.887 39.4479 126.682 38.5365 126.682 37.4336C126.682 35.8112 127.252 34.6172 128.391 33.8516C129.53 33.0768 131.239 32.6484 133.518 32.5664L136.17 32.4844V31.8145C136.17 31.0124 135.961 30.4245 135.542 30.0508C135.122 29.6771 134.539 29.4902 133.792 29.4902C133.053 29.4902 132.329 29.5951 131.618 29.8047C130.907 30.0143 130.196 30.2786 129.485 30.5977L128.104 27.7812C128.915 27.3529 129.822 27.0156 130.825 26.7695C131.836 26.5234 132.88 26.4004 133.956 26.4004ZM136.17 34.918L134.557 34.9727C133.208 35.0091 132.269 35.2507 131.741 35.6973C131.221 36.1439 130.961 36.7318 130.961 37.4609C130.961 38.099 131.148 38.5547 131.522 38.8281C131.896 39.0924 132.383 39.2246 132.985 39.2246C133.878 39.2246 134.63 38.9603 135.241 38.4316C135.861 37.903 136.17 37.151 136.17 36.1758V34.918ZM148.51 42H144.34V20.7266H148.51V42ZM157.458 42.2734C155.754 42.2734 154.364 41.6081 153.288 40.2773C152.222 38.9375 151.689 36.9733 151.689 34.3848C151.689 31.7689 152.231 29.791 153.316 28.4512C154.4 27.1022 155.818 26.4277 157.568 26.4277C158.297 26.4277 158.939 26.528 159.495 26.7285C160.051 26.929 160.53 27.1979 160.931 27.5352C161.341 27.8724 161.687 28.2507 161.97 28.6699H162.107C162.052 28.3783 161.984 27.9499 161.901 27.3848C161.829 26.8105 161.792 26.2227 161.792 25.6211V20.7266H165.976V42H162.776L161.97 40.0176H161.792C161.528 40.4368 161.195 40.8197 160.794 41.166C160.402 41.5033 159.933 41.7721 159.386 41.9727C158.839 42.1732 158.196 42.2734 157.458 42.2734ZM158.921 38.9512C160.06 38.9512 160.862 38.6139 161.327 37.9395C161.801 37.2559 162.052 36.2305 162.079 34.8633V34.4121C162.079 32.9264 161.851 31.7917 161.396 31.0078C160.94 30.2148 160.092 29.8184 158.853 29.8184C157.932 29.8184 157.212 30.2148 156.693 31.0078C156.173 31.8008 155.913 32.9447 155.913 34.4395C155.913 35.9342 156.173 37.0599 156.693 37.8164C157.221 38.5729 157.964 38.9512 158.921 38.9512ZM183.948 34.3301C183.948 35.6061 183.774 36.7363 183.428 37.7207C183.091 38.7051 182.594 39.5391 181.938 40.2227C181.291 40.8971 180.507 41.4076 179.586 41.7539C178.675 42.1003 177.645 42.2734 176.496 42.2734C175.421 42.2734 174.432 42.1003 173.53 41.7539C172.636 41.4076 171.857 40.8971 171.192 40.2227C170.536 39.5391 170.025 38.7051 169.661 37.7207C169.305 36.7363 169.127 35.6061 169.127 34.3301C169.127 32.6348 169.428 31.1992 170.03 30.0234C170.631 28.8477 171.488 27.9544 172.6 27.3437C173.712 26.7331 175.038 26.4277 176.579 26.4277C178.01 26.4277 179.276 26.7331 180.379 27.3437C181.491 27.9544 182.362 28.8477 182.991 30.0234C183.629 31.1992 183.948 32.6348 183.948 34.3301ZM173.379 34.3301C173.379 35.3327 173.489 36.1758 173.707 36.8594C173.926 37.543 174.268 38.0579 174.733 38.4043C175.198 38.7507 175.804 38.9238 176.551 38.9238C177.289 38.9238 177.886 38.7507 178.342 38.4043C178.807 38.0579 179.144 37.543 179.354 36.8594C179.573 36.1758 179.682 35.3327 179.682 34.3301C179.682 33.3184 179.573 32.4798 179.354 31.8145C179.144 31.14 178.807 30.6341 178.342 30.2969C177.877 29.9596 177.271 29.791 176.524 29.791C175.421 29.791 174.619 30.1693 174.118 30.9258C173.625 31.6823 173.379 32.8171 173.379 34.3301ZM193.32 42.2734C191.807 42.2734 190.517 42 189.451 41.4531C188.384 40.8971 187.573 40.0404 187.017 38.8828C186.461 37.7253 186.183 36.2441 186.183 34.4395C186.183 32.571 186.498 31.0488 187.127 29.873C187.765 28.6882 188.644 27.8177 189.765 27.2617C190.896 26.7057 192.203 26.4277 193.689 26.4277C194.746 26.4277 195.658 26.5326 196.424 26.7422C197.198 26.9427 197.873 27.1842 198.447 27.4668L197.216 30.6934C196.56 30.429 195.95 30.2148 195.384 30.0508C194.819 29.8776 194.254 29.791 193.689 29.791C192.96 29.791 192.354 29.9642 191.871 30.3105C191.388 30.6478 191.028 31.1582 190.791 31.8418C190.554 32.5254 190.435 33.3822 190.435 34.4121C190.435 35.4238 190.563 36.2624 190.818 36.9277C191.073 37.5931 191.442 38.0898 191.925 38.418C192.409 38.737 192.996 38.8965 193.689 38.8965C194.555 38.8965 195.325 38.7826 196 38.5547C196.674 38.3177 197.33 37.9896 197.968 37.5703V41.1387C197.33 41.5397 196.661 41.8268 195.959 42C195.266 42.1823 194.386 42.2734 193.32 42.2734ZM211.907 37.4609C211.907 38.5 211.661 39.3796 211.169 40.0996C210.686 40.8105 209.961 41.3529 208.995 41.7266C208.029 42.0911 206.826 42.2734 205.386 42.2734C204.319 42.2734 203.403 42.2051 202.638 42.0684C201.881 41.9316 201.116 41.7038 200.341 41.3848V37.9395C201.17 38.3132 202.059 38.623 203.007 38.8691C203.964 39.1061 204.802 39.2246 205.522 39.2246C206.334 39.2246 206.912 39.1061 207.259 38.8691C207.614 38.623 207.792 38.304 207.792 37.9121C207.792 37.6569 207.719 37.429 207.573 37.2285C207.436 37.0189 207.136 36.7865 206.671 36.5312C206.206 36.2669 205.477 35.9251 204.483 35.5059C203.526 35.1048 202.738 34.6992 202.118 34.2891C201.507 33.8789 201.052 33.3958 200.751 32.8398C200.459 32.2747 200.313 31.5592 200.313 30.6934C200.313 29.2806 200.86 28.2187 201.954 27.5078C203.057 26.7878 204.529 26.4277 206.37 26.4277C207.318 26.4277 208.22 26.5234 209.077 26.7148C209.943 26.9062 210.832 27.2116 211.743 27.6309L210.485 30.6387C209.729 30.3105 209.013 30.0417 208.339 29.832C207.673 29.6224 206.994 29.5176 206.302 29.5176C205.691 29.5176 205.231 29.5996 204.921 29.7637C204.611 29.9277 204.456 30.1784 204.456 30.5156C204.456 30.7617 204.533 30.9805 204.688 31.1719C204.853 31.3633 205.162 31.5775 205.618 31.8145C206.083 32.0423 206.762 32.3385 207.655 32.7031C208.521 33.0586 209.273 33.4323 209.911 33.8242C210.549 34.207 211.041 34.6855 211.388 35.2598C211.734 35.8249 211.907 36.5586 211.907 37.4609Z" fill="url(#paint0_linear_228_88)"/>
<path d="M82.8835 30.7754V30.2754H82.3835V30.7754H82.8835ZM90.8132 30.7754H91.3132V30.2754H90.8132V30.7754ZM90.8132 41.1387L90.9701 41.6134L91.3132 41.5V41.1387H90.8132ZM87.5456 41.9727L87.633 42.465L87.6368 42.4643L87.5456 41.9727ZM75.6101 26.5371L75.1682 26.303L75.1672 26.3051L75.6101 26.5371ZM79.1511 22.9824L78.9142 22.5421L78.9131 22.5427L79.1511 22.9824ZM87.9831 22.0664L87.8751 22.5546L87.9831 22.0664ZM90.7859 22.9551L91.2476 23.1469L91.4363 22.6926L90.9852 22.4965L90.7859 22.9551ZM89.3777 26.3457L89.1514 26.7916L89.6325 27.0357L89.8394 26.5375L89.3777 26.3457ZM87.2859 25.5664L87.415 25.0834L87.2859 25.5664ZM81.612 26.0996L81.3486 25.6747L81.3466 25.6758L81.612 26.0996ZM79.5066 28.4785L79.0578 28.2581L79.0569 28.2598L79.5066 28.4785ZM79.3015 35.5332L78.8298 35.6989L78.8302 35.7003L79.3015 35.5332ZM80.9831 37.8984L80.6831 38.2984L80.6862 38.3007L80.9831 37.8984ZM85.4948 38.6641L85.5609 39.1598L85.5701 39.1584L85.4948 38.6641ZM86.6706 38.4727L86.7568 38.9652L87.1706 38.8928V38.4727H86.6706ZM86.6706 34.3027H87.1706V33.8027H86.6706V34.3027ZM82.8835 34.3027H82.3835V34.8027H82.8835V34.3027ZM82.8835 31.2754H90.8132V30.2754H82.8835V31.2754ZM90.3132 30.7754V41.1387H91.3132V30.7754H90.3132ZM90.6563 40.6639C89.6305 41.0029 88.5633 41.2754 87.4544 41.481L87.6368 42.4643C88.7884 42.2507 89.8995 41.9672 90.9701 41.6134L90.6563 40.6639ZM87.4583 41.4803C86.3629 41.6747 85.1124 41.7734 83.7038 41.7734V42.7734C85.1573 42.7734 86.4679 42.6717 87.633 42.465L87.4583 41.4803ZM83.7038 41.7734C81.782 41.7734 80.1853 41.3945 78.8915 40.6625L78.399 41.5328C79.876 42.3685 81.6517 42.7734 83.7038 42.7734V41.7734ZM78.8915 40.6625C77.602 39.9329 76.6184 38.856 75.9395 37.4122L75.0346 37.8378C75.7957 39.4565 76.9176 40.6947 78.399 41.5328L78.8915 40.6625ZM75.9395 37.4122C75.2591 35.9653 74.907 34.1605 74.907 31.9785H73.907C73.907 34.2627 74.2749 36.2222 75.0346 37.8378L75.9395 37.4122ZM74.907 31.9785C74.907 29.946 75.2956 28.2151 76.053 26.7691L75.1672 26.3051C74.3204 27.9216 73.907 29.8184 73.907 31.9785H74.907ZM76.0519 26.7712C76.8161 25.3286 77.9248 24.2146 79.3891 23.4222L78.9131 22.5427C77.2784 23.4273 76.0264 24.6831 75.1682 26.303L76.0519 26.7712ZM79.388 23.4227C80.8569 22.6325 82.6712 22.2246 84.8523 22.2246V21.2246C82.549 21.2246 80.5625 21.6553 78.9142 22.5421L79.388 23.4227ZM84.8523 22.2246C85.8733 22.2246 86.8807 22.3346 87.8751 22.5546L88.0911 21.5782C87.0256 21.3425 85.9458 21.2246 84.8523 21.2246V22.2246ZM87.8751 22.5546C88.8784 22.7766 89.7815 23.0636 90.5865 23.4136L90.9852 22.4965C90.1132 22.1174 89.1478 21.812 88.0911 21.5782L87.8751 22.5546ZM90.3241 22.7633L88.9159 26.1539L89.8394 26.5375L91.2476 23.1469L90.3241 22.7633ZM89.6039 25.8998C88.9572 25.5716 88.2265 25.3004 87.415 25.0834L87.1567 26.0494C87.9129 26.2517 88.5768 26.5 89.1514 26.7916L89.6039 25.8998ZM87.415 25.0834C86.5868 24.8619 85.7229 24.752 84.8249 24.752V25.752C85.6405 25.752 86.4172 25.8517 87.1567 26.0494L87.415 25.0834ZM84.8249 24.752C83.5154 24.752 82.3503 25.0536 81.3486 25.6747L81.8755 26.5246C82.6967 26.0154 83.6735 25.752 84.8249 25.752V24.752ZM81.3466 25.6758C80.36 26.2937 79.5972 27.1597 79.0578 28.2581L79.9554 28.6989C80.4186 27.7557 81.0594 27.0357 81.8774 26.5234L81.3466 25.6758ZM79.0569 28.2598C78.525 29.3532 78.2683 30.6251 78.2683 32.0605H79.2683C79.2683 30.7434 79.5037 29.6273 79.9562 28.6972L79.0569 28.2598ZM78.2683 32.0605C78.2683 33.4086 78.452 34.6239 78.8298 35.6989L79.7732 35.3675C79.44 34.4191 79.2683 33.3192 79.2683 32.0605H78.2683ZM78.8302 35.7003C79.2148 36.785 79.8301 37.6586 80.6831 38.2984L81.2831 37.4984C80.6049 36.9898 80.0991 36.2867 79.7727 35.3661L78.8302 35.7003ZM80.6862 38.3007C81.56 38.9457 82.6713 39.2461 83.9773 39.2461V38.2461C82.8223 38.2461 81.9375 37.9814 81.2801 37.4962L80.6862 38.3007ZM83.9773 39.2461C84.592 39.2461 85.1215 39.2183 85.5609 39.1597L85.4288 38.1684C85.0479 38.2192 84.5657 38.2461 83.9773 38.2461V39.2461ZM85.5701 39.1584C85.9925 39.0941 86.3881 39.0297 86.7568 38.9652L86.5844 37.9801C86.224 38.0432 85.8357 38.1064 85.4196 38.1698L85.5701 39.1584ZM87.1706 38.4727V34.3027H86.1706V38.4727H87.1706ZM86.6706 33.8027H82.8835V34.8027H86.6706V33.8027ZM83.3835 34.3027V30.7754H82.3835V34.3027H83.3835ZM108.348 37.7207L107.876 37.5547L107.875 37.5587L108.348 37.7207ZM106.857 40.2227L106.497 39.8764L106.497 39.8765L106.857 40.2227ZM104.506 41.7539L104.33 41.2859L104.328 41.2865L104.506 41.7539ZM98.4492 41.7539L98.2685 42.2201L98.27 42.2207L98.4492 41.7539ZM96.1113 40.2227L95.7506 40.569L95.7554 40.5738L96.1113 40.2227ZM94.5801 37.7207L94.1098 37.8905L94.1112 37.8944L94.5801 37.7207ZM105.299 27.3437L105.057 27.7812L105.058 27.782L105.299 27.3437ZM107.91 30.0234L107.469 30.2593L107.471 30.2619L107.91 30.0234ZM103.262 38.4043L102.963 38.0033L102.959 38.0062L103.262 38.4043ZM104.273 36.8594L103.797 36.707L103.795 36.7128L104.273 36.8594ZM104.273 31.8145L103.796 31.9629L103.798 31.9706L104.273 31.8145ZM99.0371 30.9258L98.6203 30.6496L98.618 30.6531L99.0371 30.9258ZM108.367 34.3301C108.367 35.5618 108.2 36.6341 107.876 37.5547L108.819 37.8867C109.188 36.8386 109.367 35.6505 109.367 34.3301H108.367ZM107.875 37.5587C107.559 38.481 107.098 39.2503 106.497 39.8764L107.218 40.5689C107.93 39.8279 108.462 38.9291 108.821 37.8828L107.875 37.5587ZM106.497 39.8765C105.904 40.4943 105.184 40.9645 104.33 41.2859L104.682 42.2219C105.669 41.8506 106.517 41.3 107.218 40.5688L106.497 39.8765ZM104.328 41.2865C103.483 41.6078 102.514 41.7734 101.416 41.7734V42.7734C102.615 42.7734 103.706 42.5927 104.683 42.2213L104.328 41.2865ZM101.416 41.7734C100.395 41.7734 99.4675 41.6092 98.6284 41.2871L98.27 42.2207C99.2357 42.5913 100.286 42.7734 101.416 42.7734V41.7734ZM98.63 41.2877C97.8019 40.9666 97.0825 40.4951 96.4673 39.8715L95.7554 40.5738C96.4709 41.2991 97.3101 41.8485 98.2685 42.2201L98.63 41.2877ZM96.472 39.8764C95.8682 39.2474 95.3923 38.474 95.049 37.547L94.1112 37.8944C94.497 38.9361 95.042 39.8307 95.7506 40.5689L96.472 39.8764ZM95.0504 37.5509C94.7183 36.6314 94.5469 35.5605 94.5469 34.3301H93.5469C93.5469 35.6517 93.7309 36.8412 94.1098 37.8905L95.0504 37.5509ZM94.5469 34.3301C94.5469 32.6922 94.8376 31.3393 95.3943 30.2512L94.5041 29.7957C93.8577 31.0591 93.5469 32.5774 93.5469 34.3301H94.5469ZM95.3943 30.2512C95.9523 29.1606 96.7396 28.3425 97.7602 27.782L97.2788 26.9055C96.0755 27.5664 95.1492 28.5347 94.5041 29.7957L95.3943 30.2512ZM97.7602 27.782C98.7842 27.2197 100.024 26.9277 101.498 26.9277V25.9277C99.8914 25.9277 98.4788 26.2465 97.2788 26.9055L97.7602 27.782ZM101.498 26.9277C102.856 26.9277 104.037 27.2168 105.057 27.7812L105.541 26.9063C104.355 26.2493 103.002 25.9277 101.498 25.9277V26.9277ZM105.058 27.782C106.081 28.3436 106.884 29.1643 107.469 30.2593L108.351 29.7876C107.679 28.531 106.741 27.5653 105.54 26.9055L105.058 27.782ZM107.471 30.2619C108.06 31.3475 108.367 32.6963 108.367 34.3301H109.367C109.367 32.5733 109.037 31.051 108.35 29.785L107.471 30.2619ZM97.7988 34.3301C97.7988 35.3655 97.9114 36.2637 98.1507 37.0118L99.1032 36.707C98.9051 36.0879 98.7988 35.2998 98.7988 34.3301H97.7988ZM98.1507 37.0118C98.3936 37.7707 98.787 38.3831 99.3536 38.8052L99.9511 38.0034C99.588 37.7328 99.2978 37.3152 99.1032 36.707L98.1507 37.0118ZM99.3536 38.8052C99.9269 39.2324 100.647 39.4238 101.471 39.4238V38.4238C100.8 38.4238 100.308 38.2689 99.9511 38.0034L99.3536 38.8052ZM101.471 39.4238C102.286 39.4238 102.999 39.2318 103.564 38.8024L102.959 38.0062C102.613 38.2695 102.132 38.4238 101.471 38.4238V39.4238ZM103.56 38.8052C104.129 38.3817 104.518 37.7671 104.751 37.006L103.795 36.7128C103.61 37.3188 103.324 37.7341 102.963 38.0034L103.56 38.8052ZM104.75 37.0118C104.989 36.2637 105.102 35.3655 105.102 34.3301H104.102C104.102 35.2998 103.995 36.0879 103.797 36.707L104.75 37.0118ZM105.102 34.3301C105.102 33.2867 104.989 32.391 104.748 31.6583L103.798 31.9706C103.995 32.5686 104.102 33.35 104.102 34.3301H105.102ZM104.751 31.666C104.517 30.9127 104.126 30.3062 103.555 29.8922L102.968 30.7016C103.327 30.9621 103.611 31.3673 103.796 31.9629L104.751 31.666ZM103.555 29.8922C102.983 29.4767 102.265 29.291 101.443 29.291V30.291C102.117 30.291 102.611 30.4426 102.968 30.7016L103.555 29.8922ZM101.443 29.291C100.214 29.291 99.235 29.722 98.6203 30.6496L99.4539 31.202C99.8419 30.6165 100.467 30.291 101.443 30.291V29.291ZM98.618 30.6531C98.0482 31.5288 97.7988 32.7788 97.7988 34.3301H98.7988C98.7988 32.8553 99.0416 31.8357 99.4562 31.1985L98.618 30.6531ZM115.669 42L115.202 42.178L115.325 42.5H115.669V42ZM109.845 26.7148V26.2148H109.119L109.378 26.8929L109.845 26.7148ZM114.206 26.7148L114.68 26.5543L114.565 26.2148H114.206V26.7148ZM117.159 35.4238L117.636 35.2708L117.633 35.2633L117.159 35.4238ZM117.542 37.0371L117.049 37.1167L117.05 37.1245L117.542 37.0371ZM117.747 38.5547L117.249 38.5954L117.286 39.0547H117.747V38.5547ZM117.857 38.5547V39.0547H118.329L118.356 38.5829L117.857 38.5547ZM118.048 37.0098L117.558 36.9117L117.556 36.9196L118.048 37.0098ZM118.472 35.4238L118.945 35.5845L118.946 35.5837L118.472 35.4238ZM121.411 26.7148V26.2148H121.052L120.938 26.5549L121.411 26.7148ZM125.773 26.7148L126.24 26.8929L126.498 26.2148H125.773V26.7148ZM119.949 42V42.5H120.293L120.416 42.178L119.949 42ZM116.136 41.822L110.312 26.5368L109.378 26.8929L115.202 42.178L116.136 41.822ZM109.845 27.2148H114.206V26.2148H109.845V27.2148ZM113.733 26.8754L116.686 35.5844L117.633 35.2633L114.68 26.5543L113.733 26.8754ZM116.683 35.5768C116.839 36.0617 116.961 36.5748 117.049 37.1167L118.036 36.9575C117.941 36.3692 117.808 35.8068 117.635 35.2708L116.683 35.5768ZM117.05 37.1245C117.148 37.6782 117.214 38.168 117.249 38.5954L118.246 38.514C118.208 38.0481 118.137 37.5263 118.035 36.9498L117.05 37.1245ZM117.747 39.0547H117.857V38.0547H117.747V39.0547ZM118.356 38.5829C118.382 38.1234 118.443 37.6293 118.54 37.0999L117.556 36.9196C117.453 37.484 117.386 38.0198 117.358 38.5264L118.356 38.5829ZM118.538 37.1078C118.644 36.5814 118.779 36.0737 118.945 35.5845L117.998 35.2632C117.818 35.7948 117.671 36.3444 117.558 36.9117L118.538 37.1078ZM118.946 35.5837L121.885 26.8747L120.938 26.5549L117.998 35.2639L118.946 35.5837ZM121.411 27.2148H125.773V26.2148H121.411V27.2148ZM125.306 26.5368L119.481 41.822L120.416 42.178L126.24 26.8929L125.306 26.5368ZM119.949 41.5H115.669V42.5H119.949V41.5ZM138.672 27.7402L138.989 27.353L138.672 27.7402ZM140.313 42V42.5H140.813V42H140.313ZM137.401 42L136.935 42.1809L137.059 42.5H137.401V42ZM136.594 39.9219L137.06 39.7409L136.937 39.4219H136.594V39.9219ZM136.485 39.9219V39.4219H136.245L136.094 39.6095L136.485 39.9219ZM128.979 41.7539L128.76 42.2034L128.762 42.2045L128.979 41.7539ZM127.297 40.168L126.863 40.4154L126.864 40.4178L127.297 40.168ZM128.391 33.8516L128.67 34.2666L128.672 34.265L128.391 33.8516ZM133.518 32.5664L133.503 32.0666L133.5 32.0667L133.518 32.5664ZM136.17 32.4844L136.186 32.9841L136.67 32.9691V32.4844H136.17ZM129.485 30.5977L129.036 30.8178L129.249 31.2517L129.69 31.0538L129.485 30.5977ZM128.104 27.7812L127.871 27.3391L127.442 27.5657L127.655 28.0014L128.104 27.7812ZM130.825 26.7695L130.707 26.2837L130.706 26.2839L130.825 26.7695ZM136.17 34.918H136.67V34.4007L136.154 34.4183L136.17 34.918ZM134.557 34.9727L134.571 35.4725L134.574 35.4724L134.557 34.9727ZM131.741 35.6973L131.418 35.3153L131.415 35.3181L131.741 35.6973ZM131.522 38.8281L131.227 39.2317L131.233 39.2363L131.522 38.8281ZM135.241 38.4316L134.916 38.0512L134.914 38.0536L135.241 38.4316ZM133.956 26.9004C135.942 26.9004 137.384 27.3338 138.356 28.1275L138.989 27.353C137.773 26.3602 136.071 25.9004 133.956 25.9004V26.9004ZM138.356 28.1275C139.301 28.8995 139.813 30.0945 139.813 31.8145H140.813C140.813 29.8886 140.231 28.3674 138.989 27.353L138.356 28.1275ZM139.813 31.8145V42H140.813V31.8145H139.813ZM140.313 41.5H137.401V42.5H140.313V41.5ZM137.867 41.8191L137.06 39.7409L136.128 40.1028L136.935 42.1809L137.867 41.8191ZM136.594 39.4219H136.485V40.4219H136.594V39.4219ZM136.094 39.6095C135.677 40.1312 135.259 40.5469 134.843 40.8636L135.448 41.6598C135.942 41.2838 136.418 40.8063 136.875 40.2342L136.094 39.6095ZM134.843 40.8636C134.441 41.1688 133.975 41.3971 133.439 41.5455L133.706 42.5092C134.355 42.3295 134.938 42.0473 135.448 41.6598L134.843 40.8636ZM133.439 41.5455C132.903 41.6939 132.231 41.7734 131.413 41.7734V42.7734C132.29 42.7734 133.057 42.6889 133.706 42.5092L133.439 41.5455ZM131.413 41.7734C130.576 41.7734 129.84 41.6132 129.196 41.3033L128.762 42.2045C129.558 42.5873 130.445 42.7734 131.413 42.7734V41.7734ZM129.198 41.3044C128.58 41.0035 128.093 40.5461 127.731 39.9181L126.864 40.4178C127.322 41.2117 127.956 41.8116 128.76 42.2034L129.198 41.3044ZM127.732 39.9205C127.377 39.2968 127.182 38.4774 127.182 37.4336H126.182C126.182 38.5955 126.398 39.5991 126.863 40.4154L127.732 39.9205ZM127.182 37.4336C127.182 35.9428 127.696 34.9214 128.67 34.2666L128.112 33.4366C126.808 34.313 126.182 35.6796 126.182 37.4336H127.182ZM128.672 34.265C129.698 33.5675 131.296 33.1467 133.536 33.0661L133.5 32.0667C131.183 32.1502 129.363 32.5862 128.11 33.4381L128.672 34.265ZM133.534 33.0662L136.186 32.9841L136.155 31.9846L133.503 32.0666L133.534 33.0662ZM136.67 32.4844V31.8145H135.67V32.4844H136.67ZM136.67 31.8145C136.67 30.9324 136.439 30.181 135.874 29.6775L135.209 30.424C135.483 30.6679 135.67 31.0923 135.67 31.8145H136.67ZM135.874 29.6775C135.337 29.1984 134.62 28.9902 133.792 28.9902V29.9902C134.458 29.9902 134.908 30.1558 135.209 30.424L135.874 29.6775ZM133.792 28.9902C133.005 28.9902 132.233 29.102 131.476 29.3251L131.759 30.2843C132.424 30.0881 133.101 29.9902 133.792 29.9902V28.9902ZM131.476 29.3251C130.743 29.5414 130.011 29.8137 129.28 30.1415L129.69 31.0538C130.381 30.7436 131.071 30.4872 131.759 30.2843L131.476 29.3251ZM129.934 30.3775L128.553 27.5611L127.655 28.0014L129.036 30.8178L129.934 30.3775ZM128.338 28.2234C129.108 27.8163 129.976 27.4927 130.944 27.2551L130.706 26.2839C129.668 26.5386 128.722 26.8894 127.871 27.3391L128.338 28.2234ZM130.943 27.2554C131.915 27.019 132.919 26.9004 133.956 26.9004V25.9004C132.842 25.9004 131.758 26.0279 130.707 26.2837L130.943 27.2554ZM136.154 34.4183L134.54 34.4729L134.574 35.4724L136.187 35.4177L136.154 34.4183ZM134.544 34.4728C133.173 34.5099 132.084 34.7525 131.418 35.3153L132.063 36.0792C132.455 35.7488 133.243 35.5084 134.571 35.4725L134.544 34.4728ZM131.415 35.3181C130.777 35.8664 130.461 36.5967 130.461 37.4609H131.461C131.461 36.8668 131.666 36.4213 132.067 36.0764L131.415 35.3181ZM130.461 37.4609C130.461 38.1936 130.68 38.8314 131.227 39.2316L131.817 38.4246C131.617 38.278 131.461 38.0043 131.461 37.4609H130.461ZM131.233 39.2363C131.714 39.5766 132.312 39.7246 132.985 39.7246V38.7246C132.455 38.7246 132.077 38.6083 131.811 38.4199L131.233 39.2363ZM132.985 39.7246C133.985 39.7246 134.857 39.4255 135.568 38.8097L134.914 38.0536C134.404 38.4951 133.772 38.7246 132.985 38.7246V39.7246ZM135.565 38.8121C136.319 38.1696 136.67 37.2657 136.67 36.1758H135.67C135.67 37.0364 135.403 37.6364 134.916 38.0512L135.565 38.8121ZM136.67 36.1758V34.918H135.67V36.1758H136.67ZM148.51 42V42.5H149.01V42H148.51ZM144.34 42H143.84V42.5H144.34V42ZM144.34 20.7266V20.2266H143.84V20.7266H144.34ZM148.51 20.7266H149.01V20.2266H148.51V20.7266ZM148.51 41.5H144.34V42.5H148.51V41.5ZM144.84 42V20.7266H143.84V42H144.84ZM144.34 21.2266H148.51V20.2266H144.34V21.2266ZM148.01 20.7266V42H149.01V20.7266H148.01ZM153.288 40.2773L152.897 40.5887L152.899 40.5916L153.288 40.2773ZM153.316 28.4512L153.704 28.7658L153.705 28.7645L153.316 28.4512ZM160.931 27.5352L160.609 27.9179L160.613 27.9214L160.931 27.5352ZM161.97 28.6699L161.555 28.9493L161.704 29.1699H161.97V28.6699ZM162.107 28.6699V29.1699H162.709L162.598 28.5778L162.107 28.6699ZM161.901 27.3848L161.405 27.4478L161.407 27.4566L161.901 27.3848ZM161.792 20.7266V20.2266H161.292V20.7266H161.792ZM165.976 20.7266H166.476V20.2266H165.976V20.7266ZM165.976 42V42.5H166.476V42H165.976ZM162.776 42L162.313 42.1884L162.44 42.5H162.776V42ZM161.97 40.0176L162.433 39.8291L162.306 39.5176H161.97V40.0176ZM161.792 40.0176V39.5176H161.516L161.369 39.7509L161.792 40.0176ZM160.794 41.166L161.12 41.545L161.121 41.5444L160.794 41.166ZM161.327 37.9395L160.916 37.6546L160.916 37.6557L161.327 37.9395ZM162.079 34.8633L162.579 34.8733V34.8633H162.079ZM161.396 31.0078L160.962 31.257L160.963 31.2591L161.396 31.0078ZM156.693 37.8164L156.28 38.0995L156.283 38.1028L156.693 37.8164ZM157.458 41.7734C155.905 41.7734 154.658 41.1769 153.677 39.9631L152.899 40.5916C154.069 42.0393 155.602 42.7734 157.458 42.7734V41.7734ZM153.679 39.966C152.711 38.7499 152.189 36.9154 152.189 34.3848H151.189C151.189 37.0312 151.732 39.1251 152.897 40.5887L153.679 39.966ZM152.189 34.3848C152.189 31.8268 152.721 29.9808 153.704 28.7658L152.927 28.1366C151.741 29.6012 151.189 31.711 151.189 34.3848H152.189ZM153.705 28.7645C154.694 27.5351 155.967 26.9277 157.568 26.9277V25.9277C155.668 25.9277 154.107 26.6694 152.926 28.1379L153.705 28.7645ZM157.568 26.9277C158.252 26.9277 158.835 27.0219 159.326 27.1989L159.665 26.2582C159.043 26.034 158.341 25.9277 157.568 25.9277V26.9277ZM159.326 27.1989C159.833 27.3819 160.258 27.6231 160.609 27.9178L161.253 27.1525C160.801 26.7727 160.269 26.4762 159.665 26.2582L159.326 27.1989ZM160.613 27.9214C160.988 28.2294 161.301 28.5722 161.555 28.9493L162.384 28.3905C162.074 27.9291 161.694 27.5153 161.248 27.1489L160.613 27.9214ZM161.97 29.1699H162.107V28.1699H161.97V29.1699ZM162.598 28.5778C162.545 28.2965 162.478 27.8762 162.396 27.3129L161.407 27.4566C161.489 28.0235 161.559 28.4601 161.615 28.7621L162.598 28.5778ZM162.398 27.3218C162.327 26.7692 162.292 26.2024 162.292 25.6211H161.292C161.292 26.2429 161.33 26.8518 161.405 27.4478L162.398 27.3218ZM162.292 25.6211V20.7266H161.292V25.6211H162.292ZM161.792 21.2266H165.976V20.2266H161.792V21.2266ZM165.476 20.7266V42H166.476V20.7266H165.476ZM165.976 41.5H162.776V42.5H165.976V41.5ZM163.24 41.8116L162.433 39.8291L161.507 40.206L162.313 42.1884L163.24 41.8116ZM161.97 39.5176H161.792V40.5176H161.97V39.5176ZM161.369 39.7509C161.133 40.1256 160.833 40.4713 160.467 40.7876L161.121 41.5444C161.557 41.168 161.923 40.7481 162.215 40.2842L161.369 39.7509ZM160.468 40.787C160.127 41.0805 159.711 41.3208 159.214 41.5032L159.558 42.4421C160.154 42.2235 160.677 41.926 161.12 41.545L160.468 40.787ZM159.214 41.5032C158.735 41.6789 158.153 41.7734 157.458 41.7734V42.7734C158.24 42.7734 158.943 42.6674 159.558 42.4421L159.214 41.5032ZM158.921 39.4512C160.155 39.4512 161.147 39.0818 161.739 38.2232L160.916 37.6557C160.578 38.1461 159.966 38.4512 158.921 38.4512V39.4512ZM161.738 38.2243C162.294 37.423 162.551 36.2816 162.579 34.8733L161.579 34.8533C161.553 36.1793 161.309 37.0887 160.916 37.6546L161.738 38.2243ZM162.579 34.8633V34.4121H161.579V34.8633H162.579ZM162.579 34.4121C162.579 32.8885 162.348 31.6508 161.828 30.7565L160.963 31.2591C161.355 31.9325 161.579 32.9643 161.579 34.4121H162.579ZM161.829 30.7587C161.253 29.7568 160.199 29.3184 158.853 29.3184V30.3184C159.985 30.3184 160.626 30.6729 160.962 31.257L161.829 30.7587ZM158.853 29.3184C157.758 29.3184 156.883 29.8049 156.274 30.7338L157.111 31.2818C157.541 30.6248 158.107 30.3184 158.853 30.3184V29.3184ZM156.274 30.7338C155.679 31.6426 155.413 32.8989 155.413 34.4395H156.413C156.413 32.9905 156.667 31.9589 157.111 31.2818L156.274 30.7338ZM155.413 34.4395C155.413 35.9775 155.678 37.2221 156.28 38.0995L157.105 37.5334C156.668 36.8977 156.413 35.891 156.413 34.4395H155.413ZM156.283 38.1028C156.909 38.9989 157.808 39.4512 158.921 39.4512V38.4512C158.12 38.4512 157.533 38.1469 157.102 37.53L156.283 38.1028ZM183.428 37.7207L182.956 37.5547L182.955 37.5587L183.428 37.7207ZM181.938 40.2227L181.577 39.8764L181.577 39.8765L181.938 40.2227ZM179.586 41.7539L179.41 41.2859L179.409 41.2865L179.586 41.7539ZM173.53 41.7539L173.349 42.2201L173.351 42.2207L173.53 41.7539ZM171.192 40.2227L170.831 40.569L170.836 40.5738L171.192 40.2227ZM169.661 37.7207L169.19 37.8905L169.192 37.8944L169.661 37.7207ZM180.379 27.3437L180.137 27.7812L180.139 27.782L180.379 27.3437ZM182.991 30.0234L182.55 30.2593L182.551 30.2619L182.991 30.0234ZM178.342 38.4043L178.043 38.0033L178.04 38.0062L178.342 38.4043ZM179.354 36.8594L178.878 36.707L178.876 36.7128L179.354 36.8594ZM179.354 31.8145L178.876 31.9629L178.879 31.9706L179.354 31.8145ZM174.118 30.9258L173.701 30.6496L173.698 30.6531L174.118 30.9258ZM183.448 34.3301C183.448 35.5618 183.28 36.6341 182.956 37.5547L183.9 37.8867C184.269 36.8386 184.448 35.6505 184.448 34.3301H183.448ZM182.955 37.5587C182.639 38.481 182.178 39.2503 181.577 39.8764L182.299 40.5689C183.01 39.8279 183.543 38.9291 183.901 37.8828L182.955 37.5587ZM181.577 39.8765C180.984 40.4943 180.265 40.9645 179.41 41.2859L179.762 42.2219C180.749 41.8506 181.597 41.3 182.299 40.5688L181.577 39.8765ZM179.409 41.2865C178.563 41.6078 177.595 41.7734 176.496 41.7734V42.7734C177.695 42.7734 178.787 42.5927 179.764 42.2213L179.409 41.2865ZM176.496 41.7734C175.475 41.7734 174.548 41.6092 173.709 41.2871L173.351 42.2207C174.316 42.5913 175.367 42.7734 176.496 42.7734V41.7734ZM173.71 41.2877C172.882 40.9666 172.163 40.4951 171.548 39.8715L170.836 40.5738C171.551 41.2991 172.391 41.8485 173.349 42.2201L173.71 41.2877ZM171.552 39.8764C170.949 39.2474 170.473 38.474 170.129 37.547L169.192 37.8944C169.578 38.9361 170.122 39.8307 170.831 40.5689L171.552 39.8764ZM170.131 37.5509C169.799 36.6314 169.627 35.5605 169.627 34.3301H168.627C168.627 35.6517 168.811 36.8412 169.19 37.8905L170.131 37.5509ZM169.627 34.3301C169.627 32.6922 169.918 31.3393 170.475 30.2512L169.585 29.7957C168.938 31.0591 168.627 32.5774 168.627 34.3301H169.627ZM170.475 30.2512C171.033 29.1606 171.82 28.3425 172.841 27.782L172.359 26.9055C171.156 27.5664 170.23 28.5347 169.585 29.7957L170.475 30.2512ZM172.841 27.782C173.865 27.2197 175.104 26.9277 176.579 26.9277V25.9277C174.972 25.9277 173.559 26.2465 172.359 26.9055L172.841 27.782ZM176.579 26.9277C177.936 26.9277 179.118 27.2168 180.137 27.7812L180.622 26.9063C179.435 26.2493 178.083 25.9277 176.579 25.9277V26.9277ZM180.139 27.782C181.161 28.3436 181.964 29.1643 182.55 30.2593L183.432 29.7876C182.759 28.531 181.821 27.5653 180.62 26.9055L180.139 27.782ZM182.551 30.2619C183.14 31.3475 183.448 32.6963 183.448 34.3301H184.448C184.448 32.5733 184.117 31.051 183.43 29.785L182.551 30.2619ZM172.879 34.3301C172.879 35.3655 172.992 36.2637 173.231 37.0118L174.184 36.707C173.986 36.0879 173.879 35.2998 173.879 34.3301H172.879ZM173.231 37.0118C173.474 37.7707 173.867 38.3831 174.434 38.8052L175.032 38.0034C174.668 37.7328 174.378 37.3152 174.184 36.707L173.231 37.0118ZM174.434 38.8052C175.007 39.2324 175.727 39.4238 176.551 39.4238V38.4238C175.88 38.4238 175.388 38.2689 175.032 38.0034L174.434 38.8052ZM176.551 39.4238C177.367 39.4238 178.08 39.2318 178.645 38.8024L178.04 38.0062C177.693 38.2695 177.212 38.4238 176.551 38.4238V39.4238ZM178.641 38.8052C179.209 38.3817 179.599 37.7671 179.832 37.006L178.876 36.7128C178.69 37.3188 178.405 37.7341 178.043 38.0034L178.641 38.8052ZM179.83 37.0118C180.07 36.2637 180.182 35.3655 180.182 34.3301H179.182C179.182 35.2998 179.076 36.0879 178.878 36.707L179.83 37.0118ZM180.182 34.3301C180.182 33.2867 180.07 32.391 179.829 31.6583L178.879 31.9706C179.076 32.5686 179.182 33.35 179.182 34.3301H180.182ZM179.831 31.666C179.597 30.9127 179.206 30.3062 178.636 29.8922L178.049 30.7016C178.408 30.9621 178.691 31.3673 178.876 31.9629L179.831 31.666ZM178.636 29.8922C178.063 29.4767 177.345 29.291 176.524 29.291V30.291C177.197 30.291 177.692 30.4426 178.049 30.7016L178.636 29.8922ZM176.524 29.291C175.295 29.291 174.315 29.722 173.701 30.6496L174.534 31.202C174.922 30.6165 175.547 30.291 176.524 30.291V29.291ZM173.698 30.6531C173.129 31.5288 172.879 32.7788 172.879 34.3301H173.879C173.879 32.8553 174.122 31.8357 174.537 31.1985L173.698 30.6531ZM189.451 41.4531L189.22 41.8965L189.223 41.898L189.451 41.4531ZM187.127 29.873L186.686 29.636L186.686 29.6372L187.127 29.873ZM189.765 27.2617L189.545 26.8131L189.543 26.8138L189.765 27.2617ZM196.424 26.7422L196.291 27.2245L196.298 27.2262L196.424 26.7422ZM198.447 27.4668L198.914 27.645L199.076 27.2193L198.668 27.0182L198.447 27.4668ZM197.216 30.6934L197.03 31.1572L197.502 31.3475L197.684 30.8715L197.216 30.6934ZM195.384 30.0508L195.238 30.5289L195.245 30.531L195.384 30.0508ZM191.871 30.3105L192.157 30.7206L192.162 30.7169L191.871 30.3105ZM191.925 38.418L191.645 38.8316L191.65 38.8352L191.925 38.418ZM196 38.5547L196.16 39.0284L196.165 39.0264L196 38.5547ZM197.968 37.5703H198.468V36.6434L197.694 37.1525L197.968 37.5703ZM197.968 41.1387L198.235 41.562L198.468 41.415V41.1387H197.968ZM195.959 42L195.839 41.5145L195.831 41.5165L195.959 42ZM193.32 41.7734C191.866 41.7734 190.659 41.5106 189.679 41.0082L189.223 41.898C190.376 42.4894 191.748 42.7734 193.32 42.7734V41.7734ZM189.682 41.0098C188.718 40.5072 187.981 39.7336 187.468 38.6663L186.567 39.0993C187.166 40.3472 188.051 41.2871 189.22 41.8965L189.682 41.0098ZM187.468 38.6663C186.955 37.598 186.683 36.1976 186.683 34.4395H185.683C185.683 36.2907 185.968 37.8525 186.567 39.0993L187.468 38.6663ZM186.683 34.4395C186.683 32.6221 186.99 31.1889 187.568 30.1089L186.686 29.6372C186.006 30.9088 185.683 32.5199 185.683 34.4395H186.683ZM187.567 30.1101C188.16 29.0091 188.966 28.2161 189.987 27.7097L189.543 26.8138C188.322 27.4193 187.37 28.3672 186.686 29.636L187.567 30.1101ZM189.986 27.7104C191.036 27.1937 192.266 26.9277 193.689 26.9277V25.9277C192.141 25.9277 190.755 26.2177 189.545 26.8131L189.986 27.7104ZM193.689 26.9277C194.716 26.9277 195.58 27.0297 196.291 27.2244L196.556 26.2599C195.735 26.0354 194.777 25.9277 193.689 25.9277V26.9277ZM196.298 27.2262C197.048 27.4202 197.689 27.6511 198.226 27.9154L198.668 27.0182C198.056 26.7174 197.349 26.4652 196.549 26.2581L196.298 27.2262ZM197.98 27.2886L196.749 30.5152L197.684 30.8715L198.914 27.645L197.98 27.2886ZM197.403 30.2296C196.735 29.9602 196.108 29.7402 195.524 29.5706L195.245 30.531C195.791 30.6895 196.386 30.8979 197.03 31.1572L197.403 30.2296ZM195.531 29.5727C194.921 29.3857 194.306 29.291 193.689 29.291V30.291C194.202 30.291 194.718 30.3695 195.238 30.5288L195.531 29.5727ZM193.689 29.291C192.88 29.291 192.165 29.4843 191.579 29.9042L192.162 30.7169C192.543 30.4441 193.04 30.291 193.689 30.291V29.291ZM191.585 29.9006C190.997 30.3108 190.582 30.9179 190.318 31.678L191.263 32.0056C191.474 31.3985 191.779 30.9848 192.157 30.7205L191.585 29.9006ZM190.318 31.678C190.057 32.4314 189.935 33.348 189.935 34.4121H190.935C190.935 33.4163 191.05 32.6193 191.263 32.0056L190.318 31.678ZM189.935 34.4121C189.935 35.4614 190.067 36.3657 190.351 37.1068L191.285 36.7487C191.059 36.159 190.935 35.3863 190.935 34.4121H189.935ZM190.351 37.1068C190.635 37.8462 191.06 38.4345 191.645 38.8316L192.206 38.0044C191.825 37.7452 191.512 37.34 191.285 36.7487L190.351 37.1068ZM191.65 38.8352C192.23 39.218 192.918 39.3965 193.689 39.3965V38.3965C193.075 38.3965 192.587 38.2559 192.201 38.0007L191.65 38.8352ZM193.689 39.3965C194.598 39.3965 195.424 39.277 196.16 39.0284L195.84 38.081C195.227 38.2881 194.512 38.3965 193.689 38.3965V39.3965ZM196.165 39.0264C196.881 38.7751 197.573 38.4282 198.243 37.9882L197.694 37.1525C197.088 37.5509 196.468 37.8603 195.834 38.083L196.165 39.0264ZM197.468 37.5703V41.1387H198.468V37.5703H197.468ZM197.702 40.7154C197.108 41.0892 196.487 41.3547 195.839 41.5146L196.078 42.4854C196.834 42.299 197.553 41.9902 198.235 41.562L197.702 40.7154ZM195.831 41.5165C195.195 41.6839 194.362 41.7734 193.32 41.7734V42.7734C194.411 42.7734 195.337 42.6807 196.086 42.4835L195.831 41.5165ZM211.169 40.0996L210.756 39.8175L210.755 39.8186L211.169 40.0996ZM208.995 41.7266L209.172 42.1944L209.175 42.1929L208.995 41.7266ZM202.638 42.0684L202.549 42.5604L202.55 42.5606L202.638 42.0684ZM200.341 41.3848H199.841V41.7196L200.15 41.8471L200.341 41.3848ZM200.341 37.9395L200.546 37.4836L199.841 37.1658V37.9395H200.341ZM203.007 38.8691L202.881 39.3531L202.887 39.3545L203.007 38.8691ZM207.259 38.8691L207.541 39.2818L207.543 39.2802L207.259 38.8691ZM207.573 37.2285L207.154 37.5016L207.161 37.5123L207.169 37.5226L207.573 37.2285ZM206.671 36.5312L206.424 36.9659L206.43 36.9695L206.671 36.5312ZM204.483 35.5059L204.678 35.0452L204.677 35.0447L204.483 35.5059ZM202.118 34.2891L201.839 34.7041L201.842 34.706L202.118 34.2891ZM200.751 32.8398L200.307 33.0692L200.311 33.0778L200.751 32.8398ZM201.954 27.5078L202.227 27.927L202.227 27.9265L201.954 27.5078ZM209.077 26.7148L208.968 27.2028L208.969 27.2031L209.077 26.7148ZM211.743 27.6309L212.204 27.8238L212.391 27.3784L211.952 27.1766L211.743 27.6309ZM210.485 30.6387L210.286 31.0974L210.751 31.299L210.947 30.8316L210.485 30.6387ZM208.339 29.832L208.189 30.3089L208.19 30.3095L208.339 29.832ZM204.688 31.1719L204.3 31.4866L204.309 31.4973L204.688 31.1719ZM205.618 31.8145L205.387 32.2582L205.398 32.2634L205.618 31.8145ZM207.655 32.7031L207.845 32.2406L207.844 32.2402L207.655 32.7031ZM209.911 33.8242L209.649 34.2503L209.654 34.253L209.911 33.8242ZM211.388 35.2598L210.96 35.518L210.961 35.521L211.388 35.2598ZM211.407 37.4609C211.407 38.419 211.181 39.1954 210.756 39.8175L211.582 40.3818C212.141 39.5637 212.407 38.581 212.407 37.4609H211.407ZM210.755 39.8186C210.34 40.4295 209.706 40.9155 208.815 41.2602L209.175 42.1929C210.217 41.7902 211.031 41.1916 211.582 40.3806L210.755 39.8186ZM208.819 41.2588C207.926 41.5955 206.788 41.7734 205.386 41.7734V42.7734C206.864 42.7734 208.132 42.5868 209.172 42.1944L208.819 41.2588ZM205.386 41.7734C204.339 41.7734 203.454 41.7062 202.726 41.5761L202.55 42.5606C203.353 42.704 204.3 42.7734 205.386 42.7734V41.7734ZM202.727 41.5763C202.008 41.4464 201.276 41.2292 200.531 40.9224L200.15 41.8471C200.955 42.1784 201.755 42.4169 202.549 42.5604L202.727 41.5763ZM200.841 41.3848V37.9395H199.841V41.3848H200.841ZM200.135 38.3953C200.992 38.7815 201.908 39.1004 202.881 39.3531L203.132 38.3852C202.21 38.1456 201.348 37.8448 200.546 37.4836L200.135 38.3953ZM202.887 39.3545C203.87 39.5979 204.75 39.7246 205.522 39.7246V38.7246C204.855 38.7246 204.058 38.6143 203.127 38.3838L202.887 39.3545ZM205.522 39.7246C206.355 39.7246 207.064 39.6081 207.541 39.2818L206.976 38.4565C206.761 38.6041 206.312 38.7246 205.522 38.7246V39.7246ZM207.543 39.2802C208.017 38.952 208.292 38.487 208.292 37.9121H207.292C207.292 38.1211 207.211 38.2941 206.974 38.458L207.543 39.2802ZM208.292 37.9121C208.292 37.5545 208.187 37.2231 207.978 36.9344L207.169 37.5226C207.251 37.635 207.292 37.7593 207.292 37.9121H208.292ZM207.992 36.9554C207.783 36.6346 207.385 36.3528 206.911 36.093L206.43 36.9695C206.887 37.2201 207.09 37.4032 207.154 37.5016L207.992 36.9554ZM206.918 36.0966C206.427 35.8171 205.675 35.4661 204.678 35.0452L204.289 35.9665C205.279 36.3842 205.986 36.7167 206.424 36.9659L206.918 36.0966ZM204.677 35.0447C203.738 34.6514 202.98 34.2597 202.394 33.8721L201.842 34.706C202.496 35.1387 203.315 35.5582 204.29 35.967L204.677 35.0447ZM202.397 33.874C201.842 33.5016 201.447 33.0759 201.191 32.6019L200.311 33.0778C200.656 33.7158 201.172 34.2562 201.839 34.7041L202.397 33.874ZM201.195 32.6105C200.951 32.1372 200.813 31.5069 200.813 30.6934H199.813C199.813 31.6116 199.968 32.4122 200.307 33.0692L201.195 32.6105ZM200.813 30.6934C200.813 29.4331 201.288 28.537 202.227 27.927L201.682 27.0886C200.432 27.9005 199.813 29.1281 199.813 30.6934H200.813ZM202.227 27.9265C203.223 27.2767 204.589 26.9277 206.37 26.9277V25.9277C204.469 25.9277 202.891 26.2988 201.681 27.0891L202.227 27.9265ZM206.37 26.9277C207.284 26.9277 208.15 27.02 208.968 27.2028L209.186 26.2269C208.291 26.0269 207.352 25.9277 206.37 25.9277V26.9277ZM208.969 27.2031C209.796 27.3858 210.651 27.6788 211.534 28.0851L211.952 27.1766C211.012 26.7444 210.09 26.4267 209.185 26.2266L208.969 27.2031ZM211.282 27.438L210.024 30.4458L210.947 30.8316L212.204 27.8238L211.282 27.438ZM210.684 30.18C209.914 29.8458 209.181 29.5703 208.487 29.3546L208.19 30.3095C208.845 30.513 209.544 30.7753 210.286 31.0974L210.684 30.18ZM208.489 29.3551C207.775 29.1303 207.046 29.0176 206.302 29.0176V30.0176C206.943 30.0176 207.571 30.1145 208.189 30.3089L208.489 29.3551ZM206.302 29.0176C205.662 29.0176 205.104 29.1009 204.687 29.3218L205.155 30.2056C205.357 30.0983 205.72 30.0176 206.302 30.0176V29.0176ZM204.687 29.3218C204.468 29.4375 204.279 29.5976 204.147 29.8118C204.014 30.027 203.956 30.2678 203.956 30.5156H204.956C204.956 30.4262 204.976 30.373 204.998 30.3376C205.02 30.3011 205.063 30.2539 205.155 30.2056L204.687 29.3218ZM203.956 30.5156C203.956 30.8763 204.073 31.2061 204.3 31.4865L205.077 30.8573C204.994 30.7548 204.956 30.6471 204.956 30.5156H203.956ZM204.309 31.4973C204.539 31.7655 204.922 32.0158 205.387 32.2581L205.849 31.3708C205.403 31.1392 205.166 30.9611 205.068 30.8465L204.309 31.4973ZM205.398 32.2634C205.878 32.4989 206.57 32.8002 207.466 33.166L207.844 32.2402C206.954 31.8769 206.288 31.5858 205.838 31.3655L205.398 32.2634ZM207.465 33.1657C208.312 33.5133 209.039 33.8754 209.649 34.2503L210.173 33.3982C209.507 32.9892 208.73 32.6039 207.845 32.2406L207.465 33.1657ZM209.654 34.253C210.23 34.5984 210.66 35.0211 210.96 35.518L211.816 35.0015C211.423 34.35 210.869 33.8156 210.168 33.3955L209.654 34.253ZM210.961 35.521C211.245 35.984 211.407 36.6187 211.407 37.4609H212.407C212.407 36.4985 212.223 35.6657 211.814 34.9985L210.961 35.521Z" fill="url(#paint1_linear_228_88)"/>
<mask id="mask0_228_88" style="mask-type:alpha" maskUnits="userSpaceOnUse" x="9" y="9" width="55" height="43">
<rect x="9.53705" y="9.53705" width="53.7027" height="41.6659" fill="#D9D9D9"/>
</mask>
<g mask="url(#mask0_228_88)">
<mask id="mask1_228_88" style="mask-type:alpha" maskUnits="userSpaceOnUse" x="6" y="-1" width="60" height="61">
<rect x="6.29636" y="-0.185001" width="20.833" height="59.2582" fill="#D9D9D9"/>
<rect x="44.7216" y="-0.185001" width="20.833" height="59.2582" fill="#D9D9D9"/>
<rect x="6.29636" y="40.555" width="59.2582" height="18.5182" fill="#D9D9D9"/>
<rect x="6.29636" y="-0.185001" width="59.2582" height="18.5182" fill="#D9D9D9"/>
</mask>
<g mask="url(#mask1_228_88)">
<path d="M32.9994 50.7003L27.9695 49.2918C27.4418 49.1486 27.1449 48.6154 27.2934 48.1061L38.5488 10.6894C38.6972 10.1801 39.2497 9.89359 39.7774 10.0368L44.8073 11.4453C45.335 11.5886 45.6319 12.1217 45.4834 12.631L34.228 50.0478C34.0714 50.5571 33.5271 50.8515 32.9994 50.7003ZM23.5993 41.7719L27.1862 38.0795C27.5655 37.6896 27.5407 37.0689 27.1202 36.7108L19.6496 30.3686L27.1202 24.0263C27.5407 23.6683 27.5737 23.0476 27.1862 22.6576L23.5993 18.9653C23.2282 18.5833 22.6015 18.5595 22.1975 18.9255L10.3154 29.6683C9.89487 30.0423 9.89487 30.6869 10.3154 31.0609L22.1975 41.8116C22.6015 42.1777 23.2282 42.1618 23.5993 41.7719ZM50.5793 41.8196L62.4614 31.0688C62.8819 30.6948 62.8819 30.0503 62.4614 29.6763L50.5793 18.9175C50.1835 18.5595 49.5568 18.5754 49.1775 18.9573L45.5906 22.6497C45.2113 23.0396 45.2361 23.6603 45.6566 24.0184L53.1272 30.3686L45.6566 36.7108C45.2361 37.0689 45.2031 37.6896 45.5906 38.0795L49.1775 41.7719C49.5486 42.1618 50.1753 42.1777 50.5793 41.8196Z" fill="url(#paint2_linear_228_88)" stroke="black" stroke-width="0.5"/>
</g>
<path d="M47.0364 35.0357V17.7183C47.0364 17.0328 46.5056 16.4814 45.8459 16.4814H29.5764C26.9474 16.4814 24.8145 18.6976 24.8145 21.4292V37.9219C24.8145 40.6536 26.9474 42.8698 29.5764 42.8698H45.8459C46.5056 42.8698 47.0364 42.3183 47.0364 41.6328V40.8082C47.0364 40.4216 46.8628 40.0712 46.5949 39.8444C46.3866 39.0507 46.3866 36.7881 46.5949 35.9944C46.8628 35.7727 47.0364 35.4223 47.0364 35.0357ZM31.1636 23.3877C31.1636 23.2176 31.2976 23.0785 31.4612 23.0785H41.9769C42.1406 23.0785 42.2745 23.2176 42.2745 23.3877V24.4185C42.2745 24.5886 42.1406 24.7277 41.9769 24.7277H31.4612C31.2976 24.7277 31.1636 24.5886 31.1636 24.4185V23.3877ZM31.1636 26.6863C31.1636 26.5162 31.2976 26.377 31.4612 26.377H41.9769C42.1406 26.377 42.2745 26.5162 42.2745 26.6863V27.7171C42.2745 27.8871 42.1406 28.0263 41.9769 28.0263H31.4612C31.2976 28.0263 31.1636 27.8871 31.1636 27.7171V26.6863ZM43.7329 39.5712H29.5764C28.6984 39.5712 27.9891 38.8342 27.9891 37.9219C27.9891 37.0148 28.7034 36.2727 29.5764 36.2727H43.7329C43.6386 37.154 43.6386 38.6899 43.7329 39.5712Z" fill="white" stroke="black" stroke-width="0.5"/>
</g>
<defs>
<linearGradient id="paint0_linear_228_88" x1="73.8646" y1="11.9116" x2="88.044" y2="77.1719" gradientUnits="userSpaceOnUse">
<stop stop-color="#EBD66E"/>
<stop offset="0.498959" stop-color="#FF9933"/>
<stop offset="1" stop-color="#FF6666"/>
</linearGradient>
<linearGradient id="paint1_linear_228_88" x1="73.8646" y1="11.9116" x2="88.044" y2="77.1719" gradientUnits="userSpaceOnUse">
<stop stop-color="#EBD66E"/>
<stop offset="0.498959" stop-color="#FF9933"/>
<stop offset="1" stop-color="#FF6666"/>
</linearGradient>
<linearGradient id="paint2_linear_228_88" x1="10.406" y1="9.90526" x2="43.2739" y2="62.7194" gradientUnits="userSpaceOnUse">
<stop stop-color="#EBD66E"/>
<stop offset="0.498959" stop-color="#FF9933"/>
<stop offset="1" stop-color="#FF6666"/>
</linearGradient>
</defs>
</svg>
